<?xml version="1.0" encoding="UTF-8"?>
<svg width="512px" height="512px" viewBox="0 0 512 512" version="1.1" xmlns="http://www.w3.org/2000/svg" xmlns:xlink="http://www.w3.org/1999/xlink">
    <!-- Generator: Sketch 63.1 (92452) - https://sketch.com -->
    <title>ic_partial_pickup</title>
    <desc>Created with Sketch.</desc>
    <g id="ic_partial_pickup" stroke="none" stroke-width="1" fill="none" fill-rule="evenodd">
        <g id="Group" transform="translate(32.000000, 32.000000)" fill="#000000">
            <path d="M237.872324,26.0000063 C354.003156,26.4700434 448,120.757467 448,236.999121 C448,353.531688 353.532082,448 237,448 C120.467918,448 26,353.531688 26,236.999121 L26.004,237.438006 L237.869978,237.437792 Z" id="Combined-Shape"></path>
            <path d="M211.000586,0.000421072622 L210.999732,210.999282 L0.424595819,211.000468 C0.142954136,206.802537 5.68434189e-14,202.569143 5.68434189e-14,198.304304 C5.68434189e-14,88.7838612 94.2718067,0 210.561974,0 L211.000586,0.000421072622 L211.000586,0.000421072622 Z M182.9822,27.2438803 L181.088745,27.6840014 C104.306928,45.9327848 45.45907,96.7827997 30.3780449,180.692906 L30.3780449,180.692906 L29.9921996,182.98188 L182.9822,182.98188 L182.9822,27.2438803 Z" id="Combined-Shape"></path>
        </g>
    </g>
</svg>